<svg width="179" height="38" viewBox="0 0 179 38" fill="none" xmlns="http://www.w3.org/2000/svg">
<path d="M8.94746 1.9V37H0.397461V1.9H8.94746Z" fill="#72B0F9"/>
<path d="M32.1436 8.8C35.4102 8.8 38.0102 9.86667 39.9436 12C41.9102 14.1 42.8936 17 42.8936 20.7V37H34.3936V21.85C34.3936 19.9833 33.9102 18.5333 32.9436 17.5C31.9769 16.4667 30.6769 15.95 29.0436 15.95C27.4102 15.95 26.1102 16.4667 25.1436 17.5C24.1769 18.5333 23.6936 19.9833 23.6936 21.85V37H15.1436V9.1H23.6936V12.8C24.5602 11.5667 25.7269 10.6 27.1936 9.9C28.6602 9.16667 30.3102 8.8 32.1436 8.8Z" fill="#72B0F9"/>
<path d="M47.385 19.4C47.385 15.9333 48.135 12.85 49.635 10.15C51.135 7.41667 53.2183 5.3 55.885 3.8C58.585 2.26667 61.635 1.5 65.035 1.5C69.2016 1.5 72.7683 2.6 75.735 4.8C78.7016 7 80.685 10 81.685 13.8H72.285C71.585 12.3333 70.585 11.2167 69.285 10.45C68.0183 9.68333 66.5683 9.3 64.935 9.3C62.3016 9.3 60.1683 10.2167 58.535 12.05C56.9016 13.8833 56.085 16.3333 56.085 19.4C56.085 22.4667 56.9016 24.9167 58.535 26.75C60.1683 28.5833 62.3016 29.5 64.935 29.5C66.5683 29.5 68.0183 29.1167 69.285 28.35C70.585 27.5833 71.585 26.4667 72.285 25H81.685C80.685 28.8 78.7016 31.8 75.735 34C72.7683 36.1667 69.2016 37.25 65.035 37.25C61.635 37.25 58.585 36.5 55.885 35C53.2183 33.4667 51.135 31.35 49.635 28.65C48.135 25.95 47.385 22.8667 47.385 19.4Z" fill="#72B0F9"/>
<path d="M99.6209 37.4C96.8876 37.4 94.4209 36.8167 92.2209 35.65C90.0542 34.4833 88.3376 32.8167 87.0709 30.65C85.8376 28.4833 85.2209 25.95 85.2209 23.05C85.2209 20.1833 85.8542 17.6667 87.1209 15.5C88.3876 13.3 90.1209 11.6167 92.3209 10.45C94.5209 9.28333 96.9876 8.7 99.7209 8.7C102.454 8.7 104.921 9.28333 107.121 10.45C109.321 11.6167 111.054 13.3 112.321 15.5C113.588 17.6667 114.221 20.1833 114.221 23.05C114.221 25.9167 113.571 28.45 112.271 30.65C111.004 32.8167 109.254 34.4833 107.021 35.65C104.821 36.8167 102.354 37.4 99.6209 37.4ZM99.6209 30C101.254 30 102.638 29.4 103.771 28.2C104.938 27 105.521 25.2833 105.521 23.05C105.521 20.8167 104.954 19.1 103.821 17.9C102.721 16.7 101.354 16.1 99.7209 16.1C98.0542 16.1 96.6709 16.7 95.5709 17.9C94.4709 19.0667 93.9209 20.7833 93.9209 23.05C93.9209 25.2833 94.4542 27 95.5209 28.2C96.6209 29.4 97.9876 30 99.6209 30Z" fill="#72B0F9"/>
<path d="M117.057 23C117.057 20.1333 117.59 17.6167 118.657 15.45C119.757 13.2833 121.24 11.6167 123.107 10.45C124.974 9.28333 127.057 8.7 129.357 8.7C131.19 8.7 132.857 9.08333 134.357 9.85C135.89 10.6167 137.09 11.65 137.957 12.95V0H146.507V37H137.957V33C137.157 34.3333 136.007 35.4 134.507 36.2C133.04 37 131.324 37.4 129.357 37.4C127.057 37.4 124.974 36.8167 123.107 35.65C121.24 34.45 119.757 32.7667 118.657 30.6C117.59 28.4 117.057 25.8667 117.057 23ZM137.957 23.05C137.957 20.9167 137.357 19.2333 136.157 18C134.99 16.7667 133.557 16.15 131.857 16.15C130.157 16.15 128.707 16.7667 127.507 18C126.34 19.2 125.757 20.8667 125.757 23C125.757 25.1333 126.34 26.8333 127.507 28.1C128.707 29.3333 130.157 29.95 131.857 29.95C133.557 29.95 134.99 29.3333 136.157 28.1C137.357 26.8667 137.957 25.1833 137.957 23.05Z" fill="#72B0F9"/>
<path d="M178.992 22.6C178.992 23.4 178.942 24.2333 178.842 25.1H159.492C159.626 26.8333 160.176 28.1667 161.142 29.1C162.142 30 163.359 30.45 164.792 30.45C166.926 30.45 168.409 29.55 169.242 27.75H178.342C177.876 29.5833 177.026 31.2333 175.792 32.7C174.592 34.1667 173.076 35.3167 171.242 36.15C169.409 36.9833 167.359 37.4 165.092 37.4C162.359 37.4 159.926 36.8167 157.792 35.65C155.659 34.4833 153.992 32.8167 152.792 30.65C151.592 28.4833 150.992 25.95 150.992 23.05C150.992 20.15 151.576 17.6167 152.742 15.45C153.942 13.2833 155.609 11.6167 157.742 10.45C159.876 9.28333 162.326 8.7 165.092 8.7C167.792 8.7 170.192 9.26667 172.292 10.4C174.392 11.5333 176.026 13.15 177.192 15.25C178.392 17.35 178.992 19.8 178.992 22.6ZM170.242 20.35C170.242 18.8833 169.742 17.7167 168.742 16.85C167.742 15.9833 166.492 15.55 164.992 15.55C163.559 15.55 162.342 15.9667 161.342 16.8C160.376 17.6333 159.776 18.8167 159.542 20.35H170.242Z" fill="#72B0F9"/>
</svg>
