<svg width="35" height="35" viewBox="0 0 35 35" fill="none" xmlns="http://www.w3.org/2000/svg">
<mask id="mask0_56_146" style="mask-type:alpha" maskUnits="userSpaceOnUse" x="0" y="0" width="35" height="35">
<rect width="35" height="35" fill="#D9D9D9"/>
</mask>
<g mask="url(#mask0_56_146)">
<path d="M8.02083 25.5208C5.78472 25.5208 3.88889 24.743 2.33333 23.1875C0.777778 21.6319 0 19.7361 0 17.5C0 15.2639 0.777778 13.368 2.33333 11.8125C3.88889 10.2569 5.78472 9.47916 8.02083 9.47916C8.92014 9.47916 9.78299 9.63714 10.6094 9.95311C11.4358 10.2691 12.1771 10.7187 12.8333 11.3021L15.3125 13.5625L13.125 15.5312L10.8646 13.4896C10.4757 13.1493 10.0382 12.8819 9.55208 12.6875C9.06597 12.493 8.55556 12.3958 8.02083 12.3958C6.61111 12.3958 5.40799 12.8941 4.41146 13.8906C3.41493 14.8871 2.91667 16.0903 2.91667 17.5C2.91667 18.9097 3.41493 20.1128 4.41146 21.1094C5.40799 22.1059 6.61111 22.6042 8.02083 22.6042C8.55556 22.6042 9.06597 22.5069 9.55208 22.3125C10.0382 22.118 10.4757 21.8507 10.8646 21.5104L22.1667 11.3021C22.8229 10.7187 23.5642 10.2691 24.3906 9.95311C25.217 9.63714 26.0799 9.47916 26.9792 9.47916C29.2153 9.47916 31.1111 10.2569 32.6667 11.8125C34.2222 13.368 35 15.2639 35 17.5C35 19.7361 34.2222 21.6319 32.6667 23.1875C31.1111 24.743 29.2153 25.5208 26.9792 25.5208C26.0799 25.5208 25.217 25.3628 24.3906 25.0469C23.5642 24.7309 22.8229 24.2812 22.1667 23.6979L19.6875 21.4375L21.875 19.4687L24.1354 21.5104C24.5243 21.8507 24.9618 22.118 25.4479 22.3125C25.934 22.5069 26.4444 22.6042 26.9792 22.6042C28.3889 22.6042 29.592 22.1059 30.5885 21.1094C31.5851 20.1128 32.0833 18.9097 32.0833 17.5C32.0833 16.0903 31.5851 14.8871 30.5885 13.8906C29.592 12.8941 28.3889 12.3958 26.9792 12.3958C26.4444 12.3958 25.934 12.493 25.4479 12.6875C24.9618 12.8819 24.5243 13.1493 24.1354 13.4896L12.8333 23.6979C12.1771 24.2812 11.4358 24.7309 10.6094 25.0469C9.78299 25.3628 8.92014 25.5208 8.02083 25.5208Z" fill="#BCB584"/>
</g>
</svg>
